<svg id="visual" viewBox="0 0 900 600" width="900" height="600" xmlns="http://www.w3.org/2000/svg" xmlns:xlink="http://www.w3.org/1999/xlink" version="1.1"><rect x="0" y="0" width="900" height="600" fill="#e4e8ea"></rect><path d="M237 0L244 20C251 40 265 80 249 120C233 160 187 200 163.3 240C139.7 280 138.3 320 149.2 360C160 400 183 440 208.5 480C234 520 262 560 276 580L290 600L0 600L0 580C0 560 0 520 0 480C0 440 0 400 0 360C0 320 0 280 0 240C0 200 0 160 0 120C0 80 0 40 0 20L0 0Z" fill="#000000" stroke-linecap="round" stroke-linejoin="miter"></path></svg>